<svg width="965" height="611" viewBox="0 0 965 611" fill="none" xmlns="http://www.w3.org/2000/svg">
<g clip-path="url(#clip0_4_64)">
<rect width="965" height="611" fill="#EEEEEE"/>
<rect x="964.579" y="306" width="200" height="200" transform="rotate(45 964.579 306)" fill="#FFAEBC"/>
<rect x="72.7893" y="-120" width="256.271" height="194.641" transform="rotate(45 72.7893 -120)" fill="#A0E7E5"/>
<rect x="891.251" y="219" width="20" height="20" transform="rotate(45 891.251 219)" fill="#FFAEBC"/>
<rect x="279.686" y="28" width="16" height="16" transform="rotate(45 279.686 28)" fill="#FFAEBC"/>
<circle cx="600" cy="21" r="90" transform="rotate(90 600 21)" fill="#FFAEBC"/>
<path d="M791.906 517.749L762.055 512.485L781.539 489.266L791.906 517.749Z" fill="#FFAEBC"/>
<rect x="855" y="531" width="20" height="6" transform="rotate(90 855 531)" fill="#FFAEBC"/>
<rect x="842" y="538" width="20" height="6" fill="#FFAEBC"/>
<g clip-path="url(#clip1_4_64)">
<rect width="136" height="191.063" transform="translate(472 460.519) rotate(133.5)" fill="white"/>
<rect x="472" y="460.519" width="205" height="288" transform="rotate(133.5 472 460.519)" fill="#A0E7E5"/>
<rect x="462.57" y="451.571" width="205" height="13" transform="rotate(133.5 462.57 451.571)" fill="#EEEEEE"/>
<rect x="444.436" y="434.362" width="205" height="13" transform="rotate(133.5 444.436 434.362)" fill="#EEEEEE"/>
<rect x="426.301" y="417.153" width="205" height="13" transform="rotate(133.5 426.301 417.153)" fill="#EEEEEE"/>
<rect x="408.167" y="399.944" width="205" height="13" transform="rotate(133.5 408.167 399.944)" fill="#EEEEEE"/>
<rect x="390.033" y="382.735" width="205" height="13" transform="rotate(133.5 390.033 382.735)" fill="#EEEEEE"/>
<rect x="371.898" y="365.526" width="205" height="13" transform="rotate(133.5 371.898 365.526)" fill="#EEEEEE"/>
<rect x="353.764" y="348.318" width="205" height="13" transform="rotate(133.5 353.764 348.318)" fill="#EEEEEE"/>
<rect x="335.63" y="331.109" width="205" height="13" transform="rotate(133.5 335.63 331.109)" fill="#EEEEEE"/>
<rect x="317.495" y="313.9" width="205" height="13" transform="rotate(133.5 317.495 313.9)" fill="#EEEEEE"/>
<rect x="299.361" y="296.691" width="205" height="13" transform="rotate(133.5 299.361 296.691)" fill="#EEEEEE"/>
<rect x="281.227" y="279.482" width="205" height="13" transform="rotate(133.5 281.227 279.482)" fill="#EEEEEE"/>
</g>
<mask id="path-21-inside-1_4_64" fill="white">
<path d="M792.5 378.303C801.581 378.303 810.554 376.224 818.793 372.211C827.031 368.198 834.339 362.347 840.206 355.066C846.073 347.784 850.359 339.247 852.765 330.049C855.172 320.851 855.641 311.212 854.141 301.804L831.195 305.842C832.137 311.748 831.842 317.798 830.331 323.573C828.821 329.347 826.13 334.706 822.447 339.277C818.764 343.847 814.177 347.52 809.005 350.039C803.833 352.559 798.201 353.864 792.5 353.864V378.303Z"/>
</mask>
<path d="M792.5 378.303C801.581 378.303 810.554 376.224 818.793 372.211C827.031 368.198 834.339 362.347 840.206 355.066C846.073 347.784 850.359 339.247 852.765 330.049C855.172 320.851 855.641 311.212 854.141 301.804L831.195 305.842C832.137 311.748 831.842 317.798 830.331 323.573C828.821 329.347 826.13 334.706 822.447 339.277C818.764 343.847 814.177 347.52 809.005 350.039C803.833 352.559 798.201 353.864 792.5 353.864V378.303Z" stroke="#B4F8C8" stroke-width="42" mask="url(#path-21-inside-1_4_64)"/>
<mask id="path-22-inside-2_4_64" fill="white">
<path d="M-95.7072 619.047C-99.4495 597.823 -96.1578 575.902 -86.2889 556.327C-76.4201 536.752 -60.4639 520.495 -40.6357 509.812C-20.8074 499.129 1.90901 494.55 24.3597 496.712C46.8105 498.874 67.8815 507.669 84.6473 521.876C101.413 536.083 113.042 554.997 117.919 575.992C122.796 596.987 120.68 619.021 111.864 639.035C103.048 659.05 87.9694 676.051 68.7221 687.679C49.4749 699.307 27.0138 704.984 4.45734 703.923L7.13026 665.277C21.289 665.943 35.3878 662.379 47.4693 655.08C59.5508 647.782 69.0155 637.11 74.5494 624.547C80.0833 611.984 81.4117 598.153 78.3503 584.974C75.2888 571.796 67.9895 559.924 57.4655 551.006C46.9416 542.088 33.7153 536.568 19.623 535.211C5.53068 533.854 -8.72842 536.727 -21.1746 543.433C-33.6208 550.139 -43.6365 560.344 -49.8312 572.631C-56.0258 584.918 -58.0921 598.678 -55.743 612L-95.7072 619.047Z"/>
</mask>
<path d="M-95.7072 619.047C-99.4495 597.823 -96.1578 575.902 -86.2889 556.327C-76.4201 536.752 -60.4639 520.495 -40.6357 509.812C-20.8074 499.129 1.90901 494.55 24.3597 496.712C46.8105 498.874 67.8815 507.669 84.6473 521.876C101.413 536.083 113.042 554.997 117.919 575.992C122.796 596.987 120.68 619.021 111.864 639.035C103.048 659.05 87.9694 676.051 68.7221 687.679C49.4749 699.307 27.0138 704.984 4.45734 703.923L7.13026 665.277C21.289 665.943 35.3878 662.379 47.4693 655.08C59.5508 647.782 69.0155 637.11 74.5494 624.547C80.0833 611.984 81.4117 598.153 78.3503 584.974C75.2888 571.796 67.9895 559.924 57.4655 551.006C46.9416 542.088 33.7153 536.568 19.623 535.211C5.53068 533.854 -8.72842 536.727 -21.1746 543.433C-33.6208 550.139 -43.6365 560.344 -49.8312 572.631C-56.0258 584.918 -58.0921 598.678 -55.743 612L-95.7072 619.047Z" stroke="#B4F8C8" stroke-width="42" mask="url(#path-22-inside-2_4_64)"/>
<circle cx="522" cy="611" r="50" transform="rotate(90 522 611)" fill="#B4F8C8"/>
</g>
<defs>
<clipPath id="clip0_4_64">
<rect width="965" height="611" fill="white"/>
</clipPath>
<clipPath id="clip1_4_64">
<rect width="136" height="191.063" fill="white" transform="translate(472 460.519) rotate(133.5)"/>
</clipPath>
</defs>
</svg>
